<?xml version="1.0" standalone="no"?><!DOCTYPE svg PUBLIC "-//W3C//DTD SVG 1.1//EN" "http://www.w3.org/Graphics/SVG/1.1/DTD/svg11.dtd"><svg t="1605864076414" class="icon" viewBox="0 0 1024 1024" version="1.1" xmlns="http://www.w3.org/2000/svg" p-id="3042" xmlns:xlink="http://www.w3.org/1999/xlink" width="200" height="200"><defs><style type="text/css"></style></defs><path d="M515.4814 573.875437c-12.492083 0-24.267407-6.041253-31.127813-15.973483L139.183 54.532447c-11.160959-16.280665-6.348436-38.193008 10.853777-48.739602 17.202213-10.648989 40.138496-6.041253 51.401849 10.341806L515.071824 473.426803 819.182368 16.441834c10.956171-16.485454 33.892455-21.400372 51.197061-10.956171 17.304607 10.444201 22.526707 32.151754 11.570536 48.637208L546.814002 557.492378c-6.758012 10.137018-18.430942 16.280665-31.127814 16.383059h-0.204788z" p-id="3043"></path><path d="M807.714226 565.786301h-581.598616c-20.478825 0-37.169066-15.768695-37.169067-35.223578s16.587848-35.223578 37.169067-35.223578h581.496222c20.478825 0 37.169066 15.768695 37.169066 35.223578 0 19.352489-16.587848 35.223578-37.066672 35.223578zM807.714226 794.841954h-581.598616c-20.478825 0-37.169066-15.768695-37.169067-35.223578s16.587848-35.223578 37.169067-35.223579h581.496222c20.478825 0 37.169066 15.768695 37.169066 35.223579s-16.587848 35.223578-37.066672 35.223578z" p-id="3044"></path><path d="M516.914918 1024c-20.478825 0-37.169066-15.768695-37.169067-35.223578V538.651859c0-19.454883 16.587848-35.223578 37.169067-35.223578s37.169066 15.768695 37.169066 35.223578v450.124563c0 19.454883-16.690242 35.223578-37.169066 35.223578z" p-id="3045"></path></svg>